<svg width="582" height="178" viewBox="0 0 582 178" fill="none" xmlns="http://www.w3.org/2000/svg">
<rect width="15" height="178" rx="7.5" fill="#1814F3"/>
<rect x="27" y="87" width="15" height="91" rx="7.5" fill="#16DBCC"/>
<rect x="90" y="48" width="15" height="130" rx="7.5" fill="#1814F3"/>
<rect x="117" y="129" width="15" height="49" rx="7.5" fill="#16DBCC"/>
<rect x="180" y="56" width="15" height="122" rx="7.5" fill="#1814F3"/>
<rect x="207" y="80" width="15" height="98" rx="7.5" fill="#16DBCC"/>
<rect x="270" width="15" height="178" rx="7.5" fill="#1814F3"/>
<rect x="297" y="40" width="15" height="138" rx="7.5" fill="#16DBCC"/>
<rect x="360" y="121" width="15" height="57" rx="7.5" fill="#1814F3"/>
<rect x="387" y="87" width="15" height="91" rx="7.5" fill="#16DBCC"/>
<rect x="450" y="33" width="15" height="145" rx="7.5" fill="#1814F3"/>
<rect x="477" y="87" width="15" height="91" rx="7.5" fill="#16DBCC"/>
<rect x="540" y="31" width="15" height="147" rx="7.5" fill="#1814F3"/>
<rect x="567" y="52" width="15" height="126" rx="7.5" fill="#16DBCC"/>
</svg>
