<svg width="20" height="20" viewBox="0 0 20 20" fill="none" xmlns="http://www.w3.org/2000/svg">
<path d="M18.1588 7.53123H17.7342C17.5962 7.09959 17.4222 6.68029 17.2137 6.27744L17.5144 5.97674C18.2435 5.24842 18.224 4.08124 17.5147 3.37265L16.6275 2.48554C15.9194 1.77644 14.7519 1.75589 14.0234 2.48527L13.7225 2.7862C13.3196 2.57777 12.9003 2.4037 12.4687 2.26577V1.84113C12.4687 0.825935 11.6428 0 10.6275 0H9.37235C8.35716 0 7.53123 0.825935 7.53123 1.84113V2.26577C7.09963 2.40366 6.68029 2.57773 6.27744 2.7862L5.97678 2.48554C5.24971 1.75761 4.08233 1.77468 3.37272 2.4853L2.4855 3.37245C1.77644 4.08073 1.75593 5.24799 2.48527 5.97654L2.7862 6.27748C2.57773 6.68033 2.4037 7.09959 2.26577 7.53127H1.84117C0.825974 7.53123 0 8.35716 0 9.37235V10.6276C0 11.6428 0.825974 12.4687 1.84117 12.4687H2.26577C2.4037 12.9004 2.57773 13.3196 2.7862 13.7225L2.4855 14.0232C1.7564 14.7515 1.77593 15.9187 2.48527 16.6273L3.37241 17.5144C4.08057 18.2235 5.24799 18.244 5.97651 17.5147L6.27744 17.2137C6.68029 17.4222 7.09963 17.5962 7.53123 17.7342V18.1588C7.53123 19.174 8.3572 19.9999 9.37239 19.9999H10.6276C11.6428 19.9999 12.4688 19.174 12.4688 18.1588V17.7342C12.9004 17.5963 13.3197 17.4222 13.7225 17.2137L14.0232 17.5144C14.7503 18.2423 15.9176 18.2253 16.6273 17.5146L17.5145 16.6274C18.2235 15.9192 18.244 14.7519 17.5147 14.0234L17.2138 13.7224C17.4223 13.3196 17.5963 12.9003 17.7342 12.4686H18.1588C19.174 12.4686 20 11.6427 20 10.6275V9.37228C19.9999 8.35716 19.174 7.53123 18.1588 7.53123ZM9.99997 14.3515C7.60048 14.3515 5.64842 12.3994 5.64842 9.99997C5.64842 7.60052 7.60048 5.64842 9.99997 5.64842C12.3995 5.64842 14.3515 7.60052 14.3515 9.99997C14.3515 12.3994 12.3995 14.3515 9.99997 14.3515Z" fill="#B1B1B1"/>
</svg>
