<svg xmlns="http://www.w3.org/2000/svg" xmlns:xlink="http://www.w3.org/1999/xlink" width="1920" zoomAndPan="magnify" viewBox="0 0 1440 809.999993" height="1080" preserveAspectRatio="xMidYMid meet" version="1.0"><defs><clipPath id="d41874356b"><path d="M 728 213.15625 L 787 213.15625 L 787 294 L 728 294 Z M 728 213.15625 " clip-rule="nonzero"/></clipPath><clipPath id="e6e6756afe"><path d="M 542 213.15625 L 602 213.15625 L 602 293 L 542 293 Z M 542 213.15625 " clip-rule="nonzero"/></clipPath><clipPath id="b8bb5ba768"><path d="M 515.109375 269 L 598 269 L 598 488 L 515.109375 488 Z M 515.109375 269 " clip-rule="nonzero"/></clipPath><clipPath id="0f2ea2dcb2"><path d="M 732 270 L 814.359375 270 L 814.359375 488 L 732 488 Z M 732 270 " clip-rule="nonzero"/></clipPath><clipPath id="89bbd5a30c"><path d="M 596 386 L 733 386 L 733 512.40625 L 596 512.40625 Z M 596 386 " clip-rule="nonzero"/></clipPath></defs><g clip-path="url(#d41874356b)"><path fill="#006029" d="M 772.988281 236.210938 C 773.035156 235.53125 772.847656 235.457031 772.417969 235.984375 C 763.476562 246.96875 750.175781 254.199219 736.453125 256.386719 C 733.695312 256.824219 731.09375 256.175781 728.648438 254.441406 C 728.464844 254.3125 728.464844 254.1875 728.65625 254.066406 C 746.652344 242.347656 763.300781 229.816406 776.75 213.464844 C 776.910156 213.269531 777.058594 213.277344 777.199219 213.480469 C 780.859375 218.933594 783.183594 226.214844 784.394531 232.3125 C 786.886719 244.875 786.785156 257.421875 784.09375 269.957031 C 782.335938 278.121094 779.246094 285.734375 774.820312 292.796875 C 774.589844 293.160156 774.324219 293.191406 774.019531 292.894531 C 767.253906 286.316406 760.113281 280.171875 752.59375 274.46875 C 752.261719 274.210938 752.265625 273.96875 752.613281 273.734375 C 760.988281 268.023438 766.710938 260.683594 769.785156 251.71875 C 771.574219 246.5 772.644531 241.332031 772.988281 236.210938 Z M 772.988281 236.210938 " fill-opacity="1" fill-rule="nonzero"/></g><g clip-path="url(#e6e6756afe)"><path fill="#006029" d="M 552.175781 213.742188 C 561.917969 225.097656 573.175781 235.058594 585.460938 243.621094 C 590.597656 247.203125 595.738281 250.820312 600.878906 254.472656 C 601.066406 254.605469 601.0625 254.722656 600.859375 254.832031 C 596.347656 257.296875 592.402344 256.488281 587.316406 255.199219 C 574.949219 252.066406 564.570312 245.710938 556.183594 236.136719 C 556.070312 236.003906 555.9375 235.972656 555.777344 236.042969 C 555.617188 236.117188 555.550781 236.242188 555.582031 236.414062 C 556.863281 245.613281 559.589844 255.515625 564.75 262.691406 C 567.59375 266.640625 571.703125 270.363281 577.074219 273.855469 C 577.289062 273.996094 577.292969 274.140625 577.085938 274.292969 C 569.21875 279.980469 561.769531 286.164062 554.730469 292.839844 C 554.644531 292.921875 554.539062 292.957031 554.417969 292.941406 C 554.296875 292.929688 554.203125 292.871094 554.136719 292.769531 C 545.898438 279.875 542.863281 266.148438 542.496094 250.984375 C 542.179688 238.054688 544.90625 225.019531 551.441406 213.808594 C 551.480469 213.742188 551.527344 213.691406 551.589844 213.652344 C 551.652344 213.613281 551.71875 213.589844 551.792969 213.582031 C 551.867188 213.578125 551.9375 213.589844 552.003906 213.617188 C 552.070312 213.644531 552.128906 213.683594 552.175781 213.742188 Z M 552.175781 213.742188 " fill-opacity="1" fill-rule="nonzero"/></g><path fill="#006029" d="M 597.367188 246.546875 C 597.269531 246.484375 597.21875 246.394531 597.21875 246.277344 C 597.214844 246.164062 597.265625 246.070312 597.359375 246.007812 C 609.300781 237.769531 622.363281 231.945312 636.542969 228.546875 C 669.667969 220.589844 704.085938 226.71875 732.300781 246.121094 C 732.375 246.167969 732.410156 246.238281 732.410156 246.324219 C 732.410156 246.414062 732.375 246.480469 732.300781 246.53125 C 729.640625 248.308594 726.820312 249.777344 723.839844 250.933594 C 723.65625 251.003906 723.476562 251 723.300781 250.929688 C 708.886719 244.941406 693.300781 240.777344 677.730469 239.539062 C 675.601562 239.367188 673.464844 238.945312 671.402344 238.933594 C 665.28125 238.894531 659.40625 238.855469 653.304688 239.382812 C 637.183594 240.796875 621.664062 244.601562 606.742188 250.796875 C 604.855469 251.578125 599.179688 247.707031 597.367188 246.546875 Z M 597.367188 246.546875 " fill-opacity="1" fill-rule="nonzero"/><path fill="#006029" d="M 647.597656 249.644531 C 644.609375 252.933594 641.277344 255.707031 638.546875 257.609375 C 626.339844 266.117188 608.875 264.324219 594.601562 264.195312 C 594.527344 264.191406 594.480469 264.15625 594.457031 264.085938 C 594.4375 264.011719 594.457031 263.957031 594.515625 263.914062 C 594.898438 263.660156 595.320312 263.5625 595.78125 263.625 C 595.882812 263.636719 595.980469 263.625 596.082031 263.59375 C 612.808594 257.5 629.90625 252.71875 647.375 249.253906 C 647.488281 249.226562 647.574219 249.265625 647.632812 249.367188 C 647.691406 249.46875 647.679688 249.5625 647.597656 249.644531 Z M 647.597656 249.644531 " fill-opacity="1" fill-rule="nonzero"/><path fill="#006029" d="M 734.832031 263.714844 C 734.949219 263.75 735.027344 263.773438 735.070312 263.78125 C 735.214844 263.792969 735.28125 263.875 735.265625 264.019531 C 735.253906 264.164062 735.175781 264.226562 735.03125 264.214844 C 727.917969 264.222656 720.792969 264.222656 713.664062 264.21875 C 712.636719 264.21875 711.363281 264.121094 709.84375 263.925781 C 708.15625 263.707031 706.289062 263.707031 704.746094 263.359375 C 695.644531 261.3125 688.125 256.65625 682.1875 249.378906 C 682.160156 249.34375 682.15625 249.308594 682.167969 249.265625 C 682.183594 249.222656 682.210938 249.199219 682.253906 249.1875 C 682.414062 249.152344 682.550781 249.207031 682.660156 249.351562 C 682.792969 249.53125 682.96875 249.644531 683.1875 249.6875 C 701.964844 253.289062 717.648438 258.507812 734.832031 263.714844 Z M 734.832031 263.714844 " fill-opacity="1" fill-rule="nonzero"/><path fill="#006029" d="M 659.503906 253.753906 C 644.894531 274.855469 623.816406 290.164062 599.847656 299.035156 C 591.5 302.121094 585.03125 304.789062 580.433594 307.027344 C 576.8125 308.796875 573.910156 311.296875 571.730469 314.523438 C 571.675781 314.605469 571.605469 314.625 571.515625 314.582031 C 571.425781 314.542969 571.398438 314.472656 571.425781 314.378906 C 572.546875 310.964844 574.113281 307.949219 576.433594 305.027344 C 589.125 289.019531 607.808594 280.507812 625.871094 272.222656 C 637.542969 266.867188 648.648438 260.601562 659.179688 253.421875 C 659.289062 253.34375 659.390625 253.355469 659.484375 253.449219 C 659.578125 253.546875 659.585938 253.648438 659.503906 253.753906 Z M 659.503906 253.753906 " fill-opacity="1" fill-rule="nonzero"/><path fill="#006029" d="M 746.5 297.683594 C 751.804688 302.3125 755.570312 307.914062 757.804688 314.488281 C 757.84375 314.585938 757.816406 314.660156 757.71875 314.703125 C 757.621094 314.746094 757.546875 314.71875 757.492188 314.628906 C 754.71875 309.945312 750.363281 307.265625 745.453125 305.359375 C 735.480469 301.492188 728.601562 298.773438 724.824219 297.207031 C 702.679688 288.019531 683.347656 273.347656 669.289062 253.855469 C 669.195312 253.730469 669.203125 253.613281 669.3125 253.503906 C 669.425781 253.390625 669.542969 253.382812 669.667969 253.476562 C 694.023438 270.726562 723.835938 277.910156 746.5 297.683594 Z M 746.5 297.683594 " fill-opacity="1" fill-rule="nonzero"/><g clip-path="url(#b8bb5ba768)"><path fill="#006029" d="M 531.566406 366.503906 C 531.582031 366.410156 531.546875 366.339844 531.457031 366.304688 C 531.367188 366.265625 531.289062 366.285156 531.226562 366.359375 C 524.0625 375.246094 519.265625 385.578125 515.710938 396.472656 C 515.289062 397.761719 515.078125 397.730469 515.078125 396.378906 C 515.097656 369.589844 522.679688 344.773438 537.832031 321.9375 C 552.992188 299.082031 573.609375 282.523438 597.328125 269.824219 C 597.425781 269.769531 597.507812 269.789062 597.570312 269.878906 C 597.632812 269.96875 597.625 270.054688 597.546875 270.132812 C 594.390625 273.074219 591.417969 276.167969 588.636719 279.402344 C 574.804688 295.5 564.226562 313.929688 556.902344 334.691406 C 554.195312 342.363281 552.335938 349.453125 551.332031 355.960938 C 549.71875 366.425781 549.816406 377.71875 552.648438 387.886719 C 557.667969 405.910156 571.867188 419.683594 587.726562 428.695312 C 588.214844 428.976562 588.394531 429.394531 588.261719 429.945312 C 583.550781 449.164062 587.003906 469.957031 596.304688 487.359375 C 596.4375 487.601562 596.382812 487.652344 596.144531 487.503906 C 574.242188 473.878906 554.773438 451.597656 550.90625 425.085938 C 550.027344 419.042969 549.785156 413.003906 550.1875 406.976562 C 550.195312 406.878906 550.179688 406.789062 550.136719 406.703125 C 550.097656 406.613281 550.039062 406.542969 549.957031 406.488281 C 549.878906 406.433594 549.792969 406.402344 549.699219 406.390625 C 549.601562 406.378906 549.511719 406.394531 549.421875 406.433594 C 538.980469 410.96875 532.316406 419.960938 529.078125 430.679688 C 529.042969 430.796875 528.96875 430.851562 528.847656 430.847656 C 528.726562 430.84375 528.652344 430.78125 528.628906 430.660156 C 528.367188 429.480469 528.324219 428.195312 528.082031 427.070312 C 523.863281 407.164062 524.960938 388.074219 530.957031 369.09375 C 531.234375 368.210938 531.4375 367.347656 531.566406 366.503906 Z M 531.566406 366.503906 " fill-opacity="1" fill-rule="nonzero"/></g><g clip-path="url(#0f2ea2dcb2)"><path fill="#006029" d="M 733.199219 486.804688 C 742.660156 468.675781 745.261719 449.53125 740.996094 429.363281 C 740.945312 429.140625 741.019531 428.960938 741.210938 428.828125 C 748.109375 424.136719 754.113281 420.207031 760.625 413.734375 C 779.109375 395.371094 782.476562 369.769531 775.707031 345.378906 C 768.078125 317.886719 753.148438 290.171875 732.09375 270.535156 C 732.035156 270.488281 732.03125 270.433594 732.074219 270.375 C 732.117188 270.3125 732.171875 270.300781 732.242188 270.335938 C 763.835938 286.996094 789.703125 311.308594 803.71875 344.535156 C 810.835938 361.414062 814.316406 379.0625 814.160156 397.472656 C 814.164062 397.578125 814.117188 397.640625 814.011719 397.65625 C 813.90625 397.671875 813.84375 397.628906 813.816406 397.527344 C 810.398438 386.351562 805.128906 375.664062 797.691406 366.65625 C 797.585938 366.523438 797.457031 366.5 797.3125 366.582031 C 797.164062 366.664062 797.117188 366.785156 797.175781 366.945312 C 804.222656 387.824219 805.234375 409.039062 800.210938 430.589844 C 800.1875 430.679688 800.125 430.734375 800.027344 430.742188 C 799.933594 430.753906 799.863281 430.714844 799.820312 430.628906 C 799.625 430.230469 799.539062 429.804688 799.554688 429.351562 C 799.5625 429.175781 799.535156 429.003906 799.476562 428.835938 C 795.992188 419.066406 789.363281 410.429688 779.507812 406.6875 C 779.097656 406.535156 778.898438 406.675781 778.90625 407.113281 C 779.152344 417.554688 778.265625 427.738281 774.945312 437.492188 C 768.542969 456.308594 755.148438 471.660156 739.296875 483.066406 C 737.148438 484.613281 735.019531 486.160156 732.914062 487.707031 C 732.875 487.734375 732.832031 487.742188 732.785156 487.726562 C 732.738281 487.710938 732.707031 487.679688 732.691406 487.632812 C 732.636719 487.460938 732.703125 487.304688 732.890625 487.164062 C 733.023438 487.066406 733.125 486.949219 733.199219 486.804688 Z M 733.199219 486.804688 " fill-opacity="1" fill-rule="nonzero"/></g><path fill="#006029" d="M 668.246094 277.441406 C 689.746094 287.40625 709.128906 299.125 728.324219 311.890625 C 728.519531 312.023438 728.5 312.078125 728.261719 312.054688 C 727.183594 311.941406 725.792969 311.726562 724.089844 311.402344 C 704.019531 307.625 684.792969 301.382812 667.058594 291.351562 C 665.410156 290.417969 665.34375 289.296875 663.210938 290.539062 C 643.796875 301.855469 622.972656 308.046875 601.023438 312.167969 C 600.9375 312.1875 600.878906 312.15625 600.847656 312.078125 C 600.8125 311.996094 600.832031 311.933594 600.902344 311.886719 C 620.902344 298.40625 641.957031 285.363281 664.199219 275.953125 C 664.394531 275.867188 664.59375 275.863281 664.792969 275.9375 C 665.625 276.257812 666.777344 276.757812 668.246094 277.441406 Z M 668.246094 277.441406 " fill-opacity="1" fill-rule="nonzero"/><path fill="#006029" d="M 664.882812 301.207031 C 676.75 309.503906 690.136719 315.585938 704.464844 315.496094 C 704.644531 315.492188 704.78125 315.570312 704.871094 315.730469 C 704.960938 315.890625 704.953125 316.046875 704.855469 316.199219 C 702.296875 320.320312 698.464844 324.230469 694.058594 326.105469 C 684.171875 330.304688 672.074219 323.25 665.191406 316.5 C 664.757812 316.074219 664.328125 316.078125 663.894531 316.507812 C 657.035156 323.308594 644.476562 330.617188 634.800781 325.9375 C 630.375 323.796875 627.003906 320.574219 624.691406 316.273438 C 624.480469 315.886719 624.59375 315.671875 625.027344 315.628906 C 628.601562 315.253906 631.867188 315.289062 635.523438 314.398438 C 639.792969 313.359375 642.808594 312.503906 644.566406 311.835938 C 651.636719 309.15625 658.242188 305.617188 664.378906 301.207031 C 664.546875 301.089844 664.714844 301.089844 664.882812 301.207031 Z M 664.882812 301.207031 " fill-opacity="1" fill-rule="nonzero"/><path fill="#006029" d="M 638.101562 347.742188 C 638.511719 347.96875 638.71875 348.3125 638.722656 348.777344 C 638.84375 361.890625 635.820312 373.34375 631.769531 385.710938 C 631.582031 386.289062 631.429688 386.269531 631.3125 385.652344 C 631.277344 385.46875 631.304688 385.117188 631.394531 384.597656 C 632.738281 376.875 632.578125 367.75 625.949219 362.472656 C 623.296875 360.359375 619.714844 359.5625 616.242188 358.605469 C 605.546875 355.652344 598.421875 347.542969 594.28125 337.613281 C 590.691406 329.007812 588.429688 319.683594 579.320312 315.21875 C 579.1875 315.144531 579.144531 315.035156 579.191406 314.890625 C 579.234375 314.75 579.332031 314.683594 579.484375 314.699219 C 587.492188 315.96875 594.324219 319.984375 599.8125 325.6875 C 600.859375 326.78125 601.542969 327.050781 603.113281 326.730469 C 609.855469 325.371094 616.117188 325.832031 621.53125 330.140625 C 628.046875 335.316406 630.324219 343.445312 638.101562 347.742188 Z M 627.773438 345.609375 C 620.792969 341.230469 613.21875 337.070312 605.054688 333.128906 C 604.738281 332.976562 604.496094 333.054688 604.332031 333.367188 C 603.277344 335.359375 604.222656 339.257812 605.136719 341.320312 C 608.085938 347.945312 613.210938 349.207031 619.984375 348 C 622.691406 347.519531 625.367188 346.976562 628.011719 346.378906 C 628.066406 346.367188 628.117188 346.339844 628.164062 346.300781 C 628.207031 346.261719 628.238281 346.214844 628.257812 346.160156 C 628.277344 346.101562 628.28125 346.046875 628.273438 345.988281 C 628.261719 345.929688 628.238281 345.878906 628.203125 345.832031 C 628.160156 345.773438 628.089844 345.730469 628 345.699219 C 627.898438 345.667969 627.824219 345.636719 627.773438 345.609375 Z M 627.773438 345.609375 " fill-opacity="1" fill-rule="nonzero"/><path fill="#006029" d="M 699.578125 367.289062 C 696.8125 372.4375 697.445312 380.167969 698.246094 386.84375 C 698.246094 386.910156 698.214844 386.949219 698.152344 386.964844 C 698.089844 386.980469 698.046875 386.957031 698.015625 386.898438 C 694.734375 378.378906 692.050781 369.160156 691.238281 360.027344 C 690.945312 356.753906 690.179688 351.816406 690.851562 348.429688 C 690.894531 348.21875 691.007812 348.066406 691.195312 347.96875 C 696.578125 345.191406 699.011719 340.976562 703.242188 335.117188 C 708.582031 327.71875 715.785156 324.832031 724.839844 326.460938 C 726.210938 326.707031 727.1875 326.871094 727.777344 326.960938 C 727.988281 326.988281 728.167969 326.925781 728.316406 326.773438 C 734.378906 320.5 740.421875 316.128906 749.394531 314.707031 C 749.566406 314.667969 749.675781 314.734375 749.730469 314.902344 C 749.78125 315.066406 749.730469 315.183594 749.570312 315.253906 C 739.574219 320.1875 737.15625 332.636719 732.609375 341.691406 C 728.382812 350.089844 721.328125 356.214844 712.304688 358.769531 C 706.785156 360.328125 702.476562 361.894531 699.578125 367.289062 Z M 723.96875 333.058594 C 716.257812 336.84375 708.761719 341.003906 701.476562 345.542969 C 701.347656 345.621094 701.292969 345.738281 701.3125 345.882812 C 701.332031 346.03125 701.410156 346.128906 701.554688 346.167969 C 703.140625 346.65625 704.761719 347.042969 706.417969 347.332031 C 707.265625 347.484375 707.875 347.917969 708.8125 348.011719 C 709.769531 348.113281 710.371094 348.191406 710.617188 348.246094 C 716.550781 349.609375 721.382812 346.945312 723.859375 341.644531 C 724.703125 339.824219 725.945312 335.144531 724.890625 333.335938 C 724.796875 333.175781 724.660156 333.070312 724.484375 333.015625 C 724.308594 332.964844 724.136719 332.976562 723.96875 333.058594 Z M 723.96875 333.058594 " fill-opacity="1" fill-rule="nonzero"/><path fill="#006029" d="M 611.589844 366.46875 C 613.230469 366.804688 614.339844 367.15625 615.816406 367.261719 C 615.933594 367.269531 616.003906 367.328125 616.027344 367.445312 C 616.046875 367.5625 616.003906 367.644531 615.894531 367.691406 C 611.460938 369.777344 606.019531 370.933594 602.699219 371.535156 C 592.753906 373.34375 586.265625 369.65625 583.238281 360.472656 C 580.675781 352.707031 582.585938 343.097656 585.261719 335.414062 C 585.289062 335.300781 585.359375 335.253906 585.476562 335.269531 C 585.589844 335.285156 585.644531 335.351562 585.640625 335.46875 C 586.25 347.113281 590.703125 357.238281 601.558594 362.75 C 605.214844 364.609375 608.558594 365.847656 611.589844 366.46875 Z M 611.589844 366.46875 " fill-opacity="1" fill-rule="nonzero"/><path fill="#006029" d="M 713.34375 367.933594 C 713.203125 367.878906 713.089844 367.792969 712.996094 367.671875 C 712.945312 367.605469 712.933594 367.535156 712.964844 367.457031 C 712.996094 367.378906 713.050781 367.332031 713.132812 367.316406 C 730.65625 364.394531 742.960938 354.683594 742.996094 335.613281 C 742.992188 335.425781 743.078125 335.316406 743.261719 335.285156 C 743.445312 335.25 743.566406 335.324219 743.628906 335.5 C 746.820312 343.824219 748.042969 351.777344 745.898438 360.351562 C 741.8125 376.65625 724.183594 371.976562 713.34375 367.933594 Z M 713.34375 367.933594 " fill-opacity="1" fill-rule="nonzero"/><path fill="#006029" d="M 579.007812 400.503906 C 573.011719 396.671875 568.992188 390.707031 567.601562 383.816406 C 564.058594 366.289062 571.597656 349.023438 582.285156 335.632812 C 582.308594 335.601562 582.335938 335.59375 582.371094 335.601562 C 582.4375 335.625 582.480469 335.660156 582.496094 335.703125 C 582.5 335.726562 582.492188 335.757812 582.472656 335.792969 C 575.121094 349.222656 571.621094 370.789062 582.960938 383.328125 C 585.871094 386.542969 589.972656 387.84375 594.195312 386.53125 C 597.234375 385.585938 600.273438 384.566406 603.320312 383.464844 C 603.445312 383.417969 603.539062 383.453125 603.605469 383.570312 C 603.667969 383.6875 603.652344 383.789062 603.546875 383.875 C 593.125 392.273438 586.1875 401.46875 583.429688 414.722656 C 583.394531 414.910156 583.28125 414.996094 583.09375 414.984375 C 582.90625 414.96875 582.808594 414.871094 582.796875 414.679688 C 582.46875 410.808594 582.082031 406.933594 581.632812 403.058594 C 581.433594 401.328125 580.128906 401.222656 579.007812 400.503906 Z M 579.007812 400.503906 " fill-opacity="1" fill-rule="nonzero"/><path fill="#006029" d="M 745.460938 414.972656 C 742.984375 401.777344 736.109375 392.320312 725.660156 384.039062 C 725.59375 383.984375 725.570312 383.914062 725.59375 383.832031 C 725.617188 383.746094 725.671875 383.699219 725.757812 383.683594 C 725.824219 383.675781 725.917969 383.667969 726.035156 383.664062 C 726.128906 383.660156 726.222656 383.675781 726.3125 383.710938 C 731.214844 385.65625 734.59375 386.796875 736.441406 387.132812 C 743.75 388.464844 750.019531 379.644531 751.839844 373.578125 C 755.472656 361.441406 752.714844 347.222656 746.742188 336.300781 C 746.714844 336.242188 746.730469 336.195312 746.78125 336.15625 C 746.835938 336.121094 746.886719 336.125 746.929688 336.171875 C 758.804688 350.1875 767.292969 372.59375 758.839844 390.441406 C 757.058594 394.214844 754.007812 397.949219 750.582031 400.039062 C 749.289062 400.828125 748.324219 401.453125 747.6875 401.921875 C 747.523438 402.039062 747.429688 402.203125 747.40625 402.410156 L 745.894531 414.957031 C 745.878906 415.082031 745.8125 415.144531 745.6875 415.148438 C 745.5625 415.152344 745.488281 415.09375 745.460938 414.972656 Z M 745.460938 414.972656 " fill-opacity="1" fill-rule="nonzero"/><g clip-path="url(#89bbd5a30c)"><path fill="#006029" d="M 668.933594 512.457031 L 661.078125 512.457031 C 637.863281 509.765625 622.351562 492.070312 619.40625 469.457031 C 619.378906 469.253906 619.273438 469.113281 619.09375 469.027344 C 606.96875 463.332031 599.851562 454.058594 597.734375 441.210938 C 594.113281 419.253906 603.421875 400.179688 620.347656 386.683594 C 620.425781 386.625 620.503906 386.625 620.582031 386.6875 C 620.65625 386.75 620.675781 386.828125 620.636719 386.917969 C 619.347656 389.574219 617.941406 392.527344 617.09375 394.882812 C 610.140625 414.195312 615.019531 436.289062 637.511719 441.765625 C 641.300781 442.683594 644.976562 443.148438 648.539062 443.15625 C 649.222656 443.160156 649.242188 443.285156 648.605469 443.53125 C 635.792969 448.417969 618.761719 447.832031 611.328125 434.210938 C 611.269531 434.105469 611.183594 434.074219 611.070312 434.109375 C 610.957031 434.148438 610.910156 434.226562 610.921875 434.34375 C 612.199219 443.511719 618.304688 451.53125 626.867188 454.871094 C 637.332031 458.949219 650.574219 455.617188 659.972656 449.839844 C 660.183594 449.710938 660.316406 449.523438 660.367188 449.285156 C 660.421875 449.042969 660.378906 448.820312 660.246094 448.617188 C 657.535156 444.5 654.625 440.367188 650.570312 437.347656 C 646.945312 434.644531 642.015625 430.878906 635.777344 426.046875 C 634.839844 425.316406 634.203125 424.570312 633.867188 423.804688 C 631.589844 418.640625 628.894531 413.667969 625.785156 408.878906 C 625.734375 408.804688 625.714844 408.722656 625.730469 408.636719 C 625.742188 408.546875 625.785156 408.472656 625.855469 408.417969 C 625.925781 408.363281 626.007812 408.335938 626.097656 408.34375 C 626.191406 408.351562 626.265625 408.386719 626.328125 408.453125 C 626.53125 408.660156 626.828125 408.808594 627.222656 408.898438 C 637.777344 411.363281 648.328125 413.84375 658.878906 416.339844 C 660.824219 416.796875 664.179688 417.617188 666.714844 417.085938 C 678.886719 414.519531 691.0625 411.414062 703.085938 408.300781 C 703.167969 408.28125 703.234375 408.308594 703.28125 408.375 C 703.332031 408.4375 703.335938 408.507812 703.296875 408.578125 C 700.347656 413.53125 697.703125 418.660156 695.359375 423.960938 C 695.027344 424.714844 694.539062 425.339844 693.894531 425.828125 C 689.046875 429.511719 684.1875 433.175781 679.316406 436.816406 C 674.710938 440.269531 671.65625 443.855469 668.925781 448.542969 C 668.609375 449.085938 668.71875 449.523438 669.253906 449.855469 C 687.375 461.085938 713.253906 459.875 718.425781 434.613281 C 718.460938 434.402344 718.378906 434.257812 718.179688 434.183594 C 717.980469 434.109375 717.824219 434.164062 717.714844 434.347656 C 710.40625 447.296875 693.207031 448.777344 680.542969 443.476562 C 680.359375 443.394531 680.367188 443.339844 680.5625 443.3125 C 685.585938 442.542969 689.539062 442.5 694.960938 440.625 C 718.574219 432.460938 718.683594 405.414062 708.15625 386.941406 C 708.105469 386.847656 708.121094 386.765625 708.203125 386.695312 C 708.285156 386.625 708.367188 386.625 708.453125 386.6875 C 716.496094 392.972656 723.8125 401.414062 727.921875 410.6875 C 736.96875 431.089844 732.871094 458.238281 710.863281 468.78125 C 710.453125 468.984375 710.183594 469.484375 710.050781 470.28125 C 706.3125 492.738281 692.328125 509.058594 668.933594 512.457031 Z M 702.1875 471.101562 C 688.902344 472.8125 675.566406 469.171875 664.816406 461.417969 C 664.71875 461.347656 664.617188 461.34375 664.515625 461.414062 C 654.207031 468.550781 642.921875 471.902344 630.667969 471.46875 C 629.550781 471.429688 628.828125 471.355469 628.5 471.246094 C 627.019531 470.738281 626.664062 471.167969 627.425781 472.535156 C 635.011719 486.074219 648.441406 494.285156 663.992188 494.570312 C 681.308594 494.882812 694.246094 486.507812 702.570312 471.675781 C 702.652344 471.535156 702.644531 471.398438 702.554688 471.269531 C 702.46875 471.136719 702.34375 471.082031 702.1875 471.101562 Z M 702.1875 471.101562 " fill-opacity="1" fill-rule="nonzero"/></g></svg>